<?xml version="1.0" standalone="no"?>
<!DOCTYPE svg PUBLIC "-//W3C//DTD SVG 20010904//EN"
 "http://www.w3.org/TR/2001/REC-SVG-20010904/DTD/svg10.dtd">
<svg version="1.0" xmlns="http://www.w3.org/2000/svg"
 width="713.000000pt" height="199.000000pt" viewBox="0 0 713.000000 199.000000"
 preserveAspectRatio="xMidYMid meet">

<g transform="translate(0.000000,199.000000) scale(0.100000,-0.100000)"
fill="#000000" stroke="none">
<path d="M1000 1349 c-441 -61 -576 -81 -583 -88 -5 -5 11 -11 35 -15 106 -16
210 -92 270 -197 51 -89 63 -143 63 -294 -1 -130 -3 -145 -29 -207 -31 -75
-95 -155 -132 -164 -13 -3 -24 -10 -24 -16 0 -5 8 -7 18 -4 9 3 85 21 167 40
83 20 209 50 280 67 190 45 333 87 387 115 59 30 109 96 137 182 53 159 -2
408 -112 509 -70 65 -134 83 -285 82 -70 -1 -156 -5 -192 -10z m478 -160 c5
-27 -25 -47 -83 -54 -30 -4 -59 -12 -64 -19 -5 -7 -4 -30 3 -59 l11 -49 50 7
c91 14 90 14 90 -25 0 -33 -2 -35 -45 -42 -91 -15 -86 -11 -93 -85 -3 -38 -12
-86 -19 -108 -11 -34 -19 -41 -51 -48 -21 -5 -40 -7 -42 -5 -2 2 2 40 10 83
19 104 19 177 0 248 -28 107 -18 138 50 162 56 20 179 16 183 -6z m-345 -40
c22 -10 53 -56 44 -65 -2 -2 -30 -9 -63 -15 -73 -13 -76 -16 -64 -39 31 -59
30 -238 -3 -339 -11 -32 -16 -36 -47 -36 -33 0 -35 2 -33 30 1 17 5 78 9 136
7 109 -6 206 -30 215 -6 2 -32 0 -57 -4 -55 -11 -84 1 -100 40 -6 16 -10 30
-8 32 2 2 76 15 164 28 88 14 161 26 162 27 1 1 13 -4 26 -10z"/>
<path d="M3318 1341 c-110 -43 -191 -121 -229 -223 -32 -85 -33 -212 -2 -279
30 -66 86 -124 150 -155 47 -23 67 -27 142 -27 104 1 179 26 242 82 l43 38
-35 41 -34 41 -32 -25 c-124 -94 -268 -82 -336 27 -99 161 21 382 208 382 63
0 100 -14 153 -58 l30 -25 42 47 42 48 -35 31 c-76 70 -243 96 -349 55z"/>
<path d="M4730 1342 c-74 -28 -103 -47 -158 -106 -73 -77 -95 -130 -100 -241
-5 -112 17 -179 80 -244 66 -68 133 -94 238 -94 122 1 186 27 271 112 86 86
113 150 114 271 0 71 -4 94 -26 141 -32 68 -81 118 -145 150 -64 32 -206 37
-274 11z m165 -103 c97 -27 150 -102 149 -214 0 -79 -22 -131 -76 -185 -99
-100 -257 -91 -333 18 -24 35 -30 55 -33 113 -6 101 32 183 109 233 61 41 121
52 184 35z"/>
<path d="M5460 1350 l-25 -8 28 -1 c15 -1 27 4 27 9 0 6 -1 10 -2 9 -2 -1 -14
-5 -28 -9z"/>
<path d="M5563 1353 c15 -2 37 -2 50 0 12 2 0 4 -28 4 -27 0 -38 -2 -22 -4z"/>
<path d="M1870 1306 c0 -63 22 -76 124 -76 l79 0 -7 -82 c-3 -46 -13 -161 -21
-257 -9 -95 -13 -182 -9 -193 3 -10 17 -23 31 -29 29 -11 83 -12 83 -1 0 4 11
129 25 277 14 149 25 273 25 277 0 4 48 9 108 10 l107 3 3 38 c2 26 -2 45 -14
58 -16 18 -34 19 -276 19 l-258 0 0 -44z"/>
<path d="M2510 1348 c0 -2 -7 -77 -15 -168 -8 -91 -20 -226 -25 -300 -6 -74
-13 -143 -16 -152 -3 -11 5 -28 20 -43 l25 -25 225 0 c149 0 227 4 231 11 4 6
7 26 8 46 2 58 -13 63 -205 63 l-168 0 0 33 c0 17 3 55 6 84 l7 52 126 3 126
3 3 42 c5 62 -17 73 -146 73 l-103 0 6 73 c4 39 8 78 10 85 3 9 51 12 195 12
l190 0 0 38 c0 71 -6 72 -268 72 -128 0 -232 -1 -232 -2z"/>
<path d="M3796 1308 c-3 -24 -13 -131 -22 -238 -8 -107 -19 -230 -23 -272 -4
-42 -3 -86 1 -97 8 -23 45 -41 83 -41 29 0 28 -5 50 265 9 110 19 202 21 204
5 6 -11 28 158 -221 81 -120 156 -223 167 -229 11 -5 39 -11 62 -12 l42 -2 3
50 c2 28 14 169 27 314 14 158 20 273 15 286 -10 26 -29 35 -74 35 -32 0 -34
-2 -40 -47 -3 -26 -11 -113 -17 -193 -6 -80 -14 -161 -18 -180 l-7 -35 -59 88
c-200 292 -235 341 -256 353 -13 7 -43 13 -66 14 -42 0 -42 0 -47 -42z"/>
<path d="M5723 1335 c0 -8 4 -15 9 -15 4 0 8 7 8 15 0 8 -4 15 -8 15 -5 0 -9
-7 -9 -15z"/>
<path d="M5893 1343 c9 -2 23 -2 30 0 6 3 -1 5 -18 5 -16 0 -22 -2 -12 -5z"/>
<path d="M5958 1310 c2 -22 6 -40 8 -40 2 0 4 18 4 40 0 22 -3 40 -8 40 -4 0
-6 -18 -4 -40z"/>
<path d="M6104 1335 c-4 -9 -4 -19 0 -22 3 -4 6 1 6 10 0 25 97 25 103 0 3
-14 4 -13 3 2 -1 17 -9 20 -54 23 -40 2 -54 -1 -58 -13z"/>
<path d="M6352 1338 c-7 -7 -11 -32 -10 -57 l1 -46 6 50 6 50 62 0 c33 0 59 3
56 8 -7 12 -108 8 -121 -5z"/>
<path d="M6825 1342 c-5 -4 -17 -16 -25 -27 -12 -17 -10 -16 11 3 41 36 128
29 130 -12 1 -17 2 -18 6 -3 8 30 -16 47 -66 47 -25 0 -50 -4 -56 -8z"/>
<path d="M5382 1313 c-15 -16 -19 -21 -7 -12 11 9 29 21 40 27 11 6 14 12 8
12 -7 0 -25 -12 -41 -27z"/>
<path d="M5853 1285 c0 -22 2 -30 4 -17 2 12 2 30 0 40 -3 9 -5 -1 -4 -23z"/>
<path d="M5713 1295 c0 -8 4 -12 9 -9 4 3 8 9 8 15 0 5 -4 9 -8 9 -5 0 -9 -7
-9 -15z"/>
<path d="M6202 1238 c-1 -31 -5 -65 -8 -75 -5 -17 -5 -17 6 0 6 9 9 42 7 75
l-3 57 -2 -57z"/>
<path d="M6766 1258 l-17 -33 20 24 c18 20 27 41 18 41 -1 0 -11 -15 -21 -32z"/>
<path d="M5492 1268 c-9 -4 30 -6 88 -6 108 1 104 5 -8 10 -35 2 -71 0 -80 -4z"/>
<path d="M6097 1258 c-7 -27 -18 -210 -12 -188 2 8 9 58 14 109 10 93 9 125
-2 79z"/>
<path d="M6932 1250 c0 -19 2 -27 5 -17 2 9 2 25 0 35 -3 9 -5 1 -5 -18z"/>
<path d="M5336 1255 c-9 -26 -7 -32 5 -12 6 10 9 21 6 23 -2 3 -7 -2 -11 -11z"/>
<path d="M6500 1263 c0 -4 5 -15 10 -23 8 -13 10 -13 10 2 0 9 -4 20 -10 23
-5 3 -10 3 -10 -2z"/>
<path d="M5434 1215 c-3 -8 -4 -20 -2 -27 3 -7 7 -1 10 15 6 29 1 36 -8 12z"/>
<path d="M5322 1200 c0 -14 2 -19 5 -12 2 6 2 18 0 25 -3 6 -5 1 -5 -13z"/>
<path d="M5843 1175 c0 -27 2 -38 4 -22 2 15 2 37 0 50 -2 12 -4 0 -4 -28z"/>
<path d="M6526 1200 c3 -14 10 -29 15 -34 14 -16 10 6 -7 34 l-15 25 7 -25z"/>
<path d="M6721 1184 c-12 -19 -16 -32 -11 -29 11 7 43 65 36 65 -2 0 -13 -16
-25 -36z"/>
<path d="M5953 1165 c0 -27 2 -38 4 -22 2 15 2 37 0 50 -2 12 -4 0 -4 -28z"/>
<path d="M6325 1135 c-4 -42 -5 -78 -3 -81 3 -2 8 30 12 72 4 42 5 78 2 81 -2
2 -7 -30 -11 -72z"/>
<path d="M6923 1140 c0 -30 2 -43 4 -27 2 15 2 39 0 55 -2 15 -4 2 -4 -28z"/>
<path d="M5423 1135 c0 -22 2 -30 4 -17 2 12 2 30 0 40 -3 9 -5 -1 -4 -23z"/>
<path d="M5313 1110 c0 -30 2 -43 4 -27 2 15 2 39 0 55 -2 15 -4 2 -4 -28z"/>
<path d="M6550 1139 c0 -8 7 -24 15 -35 18 -24 19 -7 0 26 -9 16 -14 19 -15 9z"/>
<path d="M6193 1105 c0 -22 2 -30 4 -17 2 12 2 30 0 40 -3 9 -5 -1 -4 -23z"/>
<path d="M6667 1093 c-16 -25 -26 -47 -24 -50 3 -2 17 17 31 43 34 61 29 67
-7 7z"/>
<path d="M5832 1090 c0 -19 2 -27 5 -17 2 9 2 25 0 35 -3 9 -5 1 -5 -18z"/>
<path d="M6431 1104 c0 -11 3 -14 6 -6 3 7 2 16 -1 19 -3 4 -6 -2 -5 -13z"/>
<path d="M525 1092 c81 -50 145 -157 165 -274 7 -38 14 -68 17 -68 16 0 -10
151 -36 205 -38 80 -115 155 -161 155 -8 0 -1 -8 15 -18z"/>
<path d="M5942 1080 c0 -19 2 -27 5 -17 2 9 2 25 0 35 -3 9 -5 1 -5 -18z"/>
<path d="M6476 1090 c9 -33 43 -98 44 -83 0 6 -11 33 -26 60 -14 26 -22 37
-18 23z"/>
<path d="M6812 1090 c0 -14 2 -19 5 -12 2 6 2 18 0 25 -3 6 -5 1 -5 -13z"/>
<path d="M6760 1089 c0 -5 5 -7 10 -4 6 3 10 8 10 11 0 2 -4 4 -10 4 -5 0 -10
-5 -10 -11z"/>
<path d="M6427 1073 c-4 -3 -6 -25 -6 -47 l2 -41 7 45 c8 48 7 54 -3 43z"/>
<path d="M6580 1071 c0 -6 4 -13 10 -16 6 -3 7 1 4 9 -7 18 -14 21 -14 7z"/>
<path d="M6716 1014 c-20 -32 -35 -59 -32 -61 2 -2 14 13 27 34 12 21 29 48
37 61 8 12 12 22 10 22 -3 0 -22 -25 -42 -56z"/>
<path d="M5692 1023 l-2 -42 -137 -4 -138 -3 138 -2 c151 -2 152 -2 144 60 -3
30 -4 29 -5 -9z"/>
<path d="M6811 1044 c0 -11 3 -14 6 -6 3 7 2 16 -1 19 -3 4 -6 -2 -5 -13z"/>
<path d="M6913 1025 c0 -22 2 -30 4 -17 2 12 2 30 0 40 -3 9 -5 -1 -4 -23z"/>
<path d="M6072 1015 c0 -16 2 -22 5 -12 2 9 2 23 0 30 -3 6 -5 -1 -5 -18z"/>
<path d="M6176 994 c-3 -26 -5 -70 -5 -98 1 -36 4 -23 10 43 9 100 6 133 -5
55z"/>
<path d="M5933 980 c0 -30 2 -43 4 -27 2 15 2 39 0 55 -2 15 -4 2 -4 -28z"/>
<path d="M5295 937 c-4 -46 -5 -92 -3 -103 2 -10 7 25 11 80 4 54 6 101 3 103
-2 2 -7 -33 -11 -80z"/>
<path d="M184 953 c-27 -221 56 -435 211 -538 71 -47 81 -41 15 8 -144 107
-229 303 -217 500 3 48 4 87 2 87 -2 0 -7 -26 -11 -57z"/>
<path d="M5823 955 c0 -33 2 -45 4 -27 2 18 2 45 0 60 -2 15 -4 0 -4 -33z"/>
<path d="M6313 975 c0 -22 2 -30 4 -17 2 12 2 30 0 40 -3 9 -5 -1 -4 -23z"/>
<path d="M6807 1003 c-4 -3 -6 -22 -6 -42 l1 -36 8 40 c8 42 8 49 -3 38z"/>
<path d="M6520 987 c0 -17 30 -65 45 -71 22 -8 66 -6 90 4 13 5 3 7 -30 4 -56
-6 -66 -1 -88 41 -9 17 -16 26 -17 22z"/>
<path d="M6412 945 c0 -16 2 -22 5 -12 2 9 2 23 0 30 -3 6 -5 -1 -5 -18z"/>
<path d="M5403 910 c0 -30 2 -43 4 -27 2 15 2 39 0 55 -2 15 -4 2 -4 -28z"/>
<path d="M497 935 c45 -19 73 -69 73 -130 0 -106 -77 -164 -142 -107 -11 9
-18 11 -18 4 0 -15 53 -42 84 -42 61 0 115 93 97 170 -15 68 -61 120 -105 120
-16 -1 -14 -4 11 -15z"/>
<path d="M6062 915 c0 -16 2 -22 5 -12 2 9 2 23 0 30 -3 6 -5 -1 -5 -18z"/>
<path d="M6903 900 c0 -25 2 -35 4 -22 2 12 2 32 0 45 -2 12 -4 2 -4 -23z"/>
<path d="M5923 865 c0 -33 2 -45 4 -27 2 18 2 45 0 60 -2 15 -4 0 -4 -33z"/>
<path d="M421 891 c-28 -28 -35 -79 -17 -123 25 -59 85 -78 121 -38 27 30 26
110 -1 147 -27 36 -74 43 -103 14z"/>
<path d="M6310 898 c0 -5 25 -8 55 -8 30 0 55 3 55 8 0 4 -25 7 -55 7 -30 0
-55 -3 -55 -7z"/>
<path d="M6793 855 c0 -22 2 -30 4 -17 2 12 2 30 0 40 -3 9 -5 -1 -4 -23z"/>
<path d="M6063 845 c0 -22 2 -30 4 -17 2 12 2 30 0 40 -3 9 -5 -1 -4 -23z"/>
<path d="M5813 835 c0 -22 2 -30 4 -17 2 12 2 30 0 40 -3 9 -5 -1 -4 -23z"/>
<path d="M5396 837 c3 -10 9 -15 12 -12 3 3 0 11 -7 18 -10 9 -11 8 -5 -6z"/>
<path d="M6893 810 c0 -25 2 -35 4 -22 2 12 2 32 0 45 -2 12 -4 2 -4 -23z"/>
<path d="M6171 814 c0 -11 3 -14 6 -6 3 7 2 16 -1 19 -3 4 -6 -2 -5 -13z"/>
<path d="M5392 785 c0 -16 2 -22 5 -12 2 9 2 23 0 30 -3 6 -5 -1 -5 -18z"/>
<path d="M5282 775 c0 -16 2 -22 5 -12 2 9 2 23 0 30 -3 6 -5 -1 -5 -18z"/>
<path d="M5912 753 c-1 -28 -5 -60 -8 -70 -5 -14 -4 -15 5 -7 8 7 11 33 8 70
l-3 59 -2 -52z"/>
<path d="M6213 768 c7 -4 75 -7 152 -6 154 2 134 6 -47 10 -64 2 -111 0 -105
-4z"/>
<path d="M5803 735 c0 -22 2 -30 4 -17 2 12 2 30 0 40 -3 9 -5 -1 -4 -23z"/>
<path d="M6060 759 c-1 -38 79 -99 112 -86 8 3 6 6 -5 6 -34 2 -79 32 -92 64
-8 18 -14 25 -15 16z"/>
<path d="M6783 730 c0 -25 2 -35 4 -22 2 12 2 32 0 45 -2 12 -4 2 -4 -23z"/>
<path d="M266 730 c14 -79 82 -171 149 -201 55 -25 79 -23 30 3 -73 37 -138
113 -171 197 l-14 36 6 -35z"/>
<path d="M692 720 c0 -14 2 -19 5 -12 2 6 2 18 0 25 -3 6 -5 1 -5 -13z"/>
<path d="M6883 705 c0 -22 2 -30 4 -17 2 12 2 30 0 40 -3 9 -5 -1 -4 -23z"/>
<path d="M5272 700 c0 -19 2 -27 5 -17 2 9 2 25 0 35 -3 9 -5 1 -5 -18z"/>
<path d="M5382 700 c0 -19 2 -27 5 -17 2 9 2 25 0 35 -3 9 -5 1 -5 -18z"/>
<path d="M6454 690 c-5 -5 -66 -11 -134 -13 l-125 -3 126 -2 c97 -2 130 1 145
13 10 8 14 15 9 15 -6 0 -15 -4 -21 -10z"/>
<path d="M5800 680 c0 -6 7 -10 15 -10 8 0 15 2 15 4 0 2 -7 6 -15 10 -8 3
-15 1 -15 -4z"/>
<path d="M1370 518 c-52 -19 -369 -100 -582 -148 -54 -12 -95 -26 -93 -30 3
-5 24 -11 48 -15 23 -4 100 -20 171 -36 71 -16 131 -28 133 -26 2 2 -38 16
-88 31 -50 15 -89 30 -86 33 3 2 72 -9 153 -26 81 -18 148 -30 150 -28 2 2
-43 18 -99 36 -120 39 -145 55 -55 35 34 -8 83 -18 108 -24 25 -5 63 -14 85
-20 77 -19 59 -8 -50 30 -126 44 -115 49 35 15 58 -13 106 -22 108 -20 1 1
-31 15 -73 31 -41 16 -75 32 -75 37 0 5 9 6 20 2 42 -13 215 -53 218 -50 2 1
-30 15 -70 30 -80 30 -112 51 -63 41 63 -13 149 -25 153 -22 2 2 -14 9 -35 16
-35 11 -66 30 -50 30 4 0 48 -7 98 -16 50 -8 93 -14 95 -11 2 2 -23 12 -56 23
-33 10 -60 22 -60 26 0 7 61 1 133 -13 87 -17 105 -8 29 13 -40 11 -71 23 -68
25 5 5 192 -14 236 -24 14 -3 23 -3 20 0 -5 5 -328 79 -333 76 -1 0 -27 -10
-57 -21z"/>
<path d="M3830 416 c0 -2 7 -7 16 -10 8 -3 12 -2 9 4 -6 10 -25 14 -25 6z"/>
<path d="M3870 416 c0 -2 11 -6 25 -8 14 -3 25 -1 25 3 0 5 -11 9 -25 9 -14 0
-25 -2 -25 -4z"/>
<path d="M4008 413 c6 -2 18 -2 25 0 6 3 1 5 -13 5 -14 0 -19 -2 -12 -5z"/>
<path d="M4130 398 c0 -13 4 -30 10 -38 6 -10 8 -3 7 23 -2 39 -17 52 -17 15z"/>
<path d="M4220 409 c0 -5 4 -8 9 -5 5 4 12 0 14 -6 3 -8 6 -6 6 5 1 9 -6 17
-14 17 -8 0 -15 -5 -15 -11z"/>
<path d="M4495 410 c-3 -6 1 -7 9 -4 18 7 21 14 7 14 -6 0 -13 -4 -16 -10z"/>
<path d="M4740 410 c20 -13 33 -13 25 0 -3 6 -14 10 -23 10 -15 0 -15 -2 -2
-10z"/>
<path d="M4880 410 c0 -5 5 -10 10 -10 6 0 10 5 10 10 0 6 -4 10 -10 10 -5 0
-10 -4 -10 -10z"/>
<path d="M4945 410 c4 -6 11 -8 16 -5 14 9 11 15 -7 15 -8 0 -12 -5 -9 -10z"/>
<path d="M5080 412 c0 -5 7 -9 15 -9 8 0 15 4 15 9 0 4 -7 8 -15 8 -8 0 -15
-4 -15 -8z"/>
<path d="M5370 416 c0 -9 30 -14 35 -6 4 6 -3 10 -14 10 -12 0 -21 -2 -21 -4z"/>
<path d="M5440 410 c0 -5 5 -10 10 -10 6 0 10 5 10 10 0 6 -4 10 -10 10 -5 0
-10 -4 -10 -10z"/>
<path d="M5548 413 c7 -3 16 -2 19 1 4 3 -2 6 -13 5 -11 0 -14 -3 -6 -6z"/>
<path d="M5748 413 c6 -2 18 -2 25 0 6 3 1 5 -13 5 -14 0 -19 -2 -12 -5z"/>
<path d="M5796 412 c-2 -4 4 -8 15 -8 10 0 19 4 19 8 0 4 -6 8 -14 8 -8 0 -17
-4 -20 -8z"/>
<path d="M5908 413 c7 -3 16 -2 19 1 4 3 -2 6 -13 5 -11 0 -14 -3 -6 -6z"/>
<path d="M6136 412 c6 -4 14 -14 17 -22 4 -10 6 -8 6 8 1 15 -5 22 -16 22 -11
0 -14 -3 -7 -8z"/>
<path d="M6250 416 c0 -2 15 -6 34 -8 19 -2 32 0 30 4 -5 8 -64 12 -64 4z"/>
<path d="M6468 413 c7 -3 16 -2 19 1 4 3 -2 6 -13 5 -11 0 -14 -3 -6 -6z"/>
<path d="M6663 414 c9 -9 87 -10 87 -1 0 4 -21 7 -47 7 -25 0 -44 -3 -40 -6z"/>
<path d="M6865 410 c3 -5 8 -10 11 -10 2 0 4 5 4 10 0 6 -5 10 -11 10 -5 0 -7
-4 -4 -10z"/>
<path d="M6905 410 c28 -12 47 -12 40 0 -3 6 -18 10 -33 9 -24 0 -25 -1 -7 -9z"/>
<path d="M3810 401 c0 -6 4 -13 10 -16 6 -3 7 1 4 9 -7 18 -14 21 -14 7z"/>
<path d="M5045 400 c-3 -6 1 -7 9 -4 18 7 21 14 7 14 -6 0 -13 -4 -16 -10z"/>
<path d="M4856 377 c3 -10 9 -15 12 -12 3 3 0 11 -7 18 -10 9 -11 8 -5 -6z"/>
<path d="M4057 337 c-3 -8 1 -14 8 -14 7 0 11 6 8 14 -3 7 -6 13 -8 13 -2 0
-5 -6 -8 -13z"/>
<path d="M4121 324 c0 -11 3 -14 6 -6 3 7 2 16 -1 19 -3 4 -6 -2 -5 -13z"/>
<path d="M6121 324 c0 -11 3 -14 6 -6 3 7 2 16 -1 19 -3 4 -6 -2 -5 -13z"/>
<path d="M3865 320 c-30 -8 -30 -8 8 -9 20 0 37 4 37 9 0 11 -2 11 -45 0z"/>
<path d="M4887 318 c2 -5 17 -8 34 -8 16 0 29 3 29 8 0 4 -15 7 -34 7 -19 0
-32 -3 -29 -7z"/>
<path d="M5410 320 l-35 -7 38 -2 c20 0 37 4 37 9 0 6 -1 9 -2 9 -2 -1 -19 -5
-38 -9z"/>
<path d="M5780 320 l-35 -7 38 -2 c20 0 37 4 37 9 0 6 -1 9 -2 9 -2 -1 -19 -5
-38 -9z"/>
<path d="M6700 320 l-35 -7 38 -2 c20 0 37 4 37 9 0 6 -1 9 -2 9 -2 -1 -19 -5
-38 -9z"/>
<path d="M6308 313 c7 -3 16 -2 19 1 4 3 -2 6 -13 5 -11 0 -14 -3 -6 -6z"/>
<path d="M5531 294 c0 -11 3 -14 6 -6 3 7 2 16 -1 19 -3 4 -6 -2 -5 -13z"/>
<path d="M4242 280 c0 -14 2 -19 5 -12 2 6 2 18 0 25 -3 6 -5 1 -5 -13z"/>
<path d="M4460 280 c-11 -7 -5 -10 23 -10 23 0 36 4 32 10 -8 13 -35 13 -55 0z"/>
<path d="M3990 270 c0 -5 5 -10 10 -10 6 0 10 5 10 10 0 6 -4 10 -10 10 -5 0
-10 -4 -10 -10z"/>
<path d="M6451 254 c0 -11 3 -14 6 -6 3 7 2 16 -1 19 -3 4 -6 -2 -5 -13z"/>
<path d="M5335 220 c-3 -5 -1 -10 4 -10 6 0 11 5 11 10 0 6 -2 10 -4 10 -3 0
-8 -4 -11 -10z"/>
<path d="M6540 219 c0 -5 5 -7 10 -4 6 3 10 8 10 11 0 2 -4 4 -10 4 -5 0 -10
-5 -10 -11z"/>
</g>
</svg>
